<svg version="1.1" id="Capa_2" xmlns="http://www.w3.org/2000/svg" xmlns:xlink="http://www.w3.org/1999/xlink" x="0px" y="0px"
	 viewBox="0 0 480 480" enable-background="new 0 0 480 480" xml:space="preserve">
<g>
	<path fill="#c3d9e0" d="M408.28,0H72.72C33.11,0,1,32.11,1,71.72v335.56C1,446.89,33.11,479,72.72,479h335.56
		c39.61,0,71.72-32.11,71.72-71.72V71.72C480,32.11,447.89,0,408.28,0z M312.21,189.98c4.86,3.45,14.15,6.84,27.89,10.17
		c19.77,4.83,35.34,9.92,46.7,15.26c11.37,5.35,20.1,12.82,26.2,22.42c6.1,9.59,9.15,21.29,9.15,35.08
		c0,22.19-8.41,40.72-25.22,55.61c-16.82,14.89-40.73,22.33-71.75,22.33c-26.53,0-48.58-5.96-66.16-17.86
		c-17.58-11.91-28.5-29.82-32.77-53.75l51.86-6.9c5.33,23.35,21.73,35.03,49.2,35.03c12.43,0,21.96-2.58,28.59-7.75
		c6.63-5.16,9.95-11.7,9.95-19.61c0-7.57-2.52-13.05-7.56-16.43c-5.04-3.39-16.73-7.51-35.07-12.36c-16.69-4.27-29.98-9-39.87-14.17
		c-9.88-5.17-17.76-12.5-23.62-21.98c-5.86-9.49-8.79-20.32-8.79-32.51c0-9.41,1.74-18.3,5.23-26.66L256,156l-116.04-0.3
		l-9.05,52.63h92.16l-7.63,44.69h-90.13l-16.18,93.51H51.15l40.49-235.52L338,107l-0.36,0.22c0.22-0.01,0.45-0.01,0.68-0.01
		c46.89,0,77.19,20.54,90.93,61.6l-49.73,11.22c-5.68-19.56-19.48-29.33-41.38-29.33c-10.18,0-18.26,2.35-24.24,7.06
		c-5.98,4.71-8.97,10.4-8.97,17.06C304.93,181.48,307.36,186.54,312.21,189.98z"/>
</g>
</svg>