<?xml version="1.0" encoding="UTF-8"?>
<svg xmlns="http://www.w3.org/2000/svg" id="Capa_1" data-name="Capa 1" viewBox="0 0 325 270"><path d="M140.59 37.55H43.23v78.29h89.73v36.51H43.23v108.98H0V.86h140.59z" style="stroke-width:0;fill:#fff"/><path d="M320.25 197.94c0 13.2-2.66 24.34-7.99 33.43-5.33 9.08-12.5 16.47-21.52 22.16-9.03 5.69-19.41 9.8-31.15 12.35-11.75 2.54-24.16 3.81-37.24 3.81-4.36 0-9.72-.33-16.08-1-6.35-.66-12.86-1.63-19.52-2.9s-12.96-2.82-18.89-4.64c-5.94-1.81-36.28-6.38-31.28-22.38l16.93-28.29c4.07-5.71 8.55 7.38 14.07 10.29 5.51 2.9 11.54 4.87 17.71 6.87 6.18 2 12.36 3.54 18.53 4.63 6.18 1.09 11.87 1.64 17.08 1.64 18.16 0 31.69-3.03 40.59-9.08q13.35-9.09 13.35-26.34c0-6.18-1.48-11.54-4.45-16.08s-7.11-8.68-12.44-12.44c-5.33-3.75-11.6-7.36-18.8-10.81a1297 1297 0 0 0-23.16-10.8c-8.84-4.73-17.07-9.51-24.7-14.35-7.63-4.85-14.26-10.2-19.89-16.08q-8.445-8.805-13.26-19.89c-3.21-7.38-4.81-16.04-4.81-25.97 0-12.23 2.75-22.86 8.26-31.88s12.78-16.47 21.8-22.34 19.28-10.23 30.79-13.08C225.68 1.93 237.43.5 249.41.5c27.25 0 58.58-3.73 59.58 9.26v42.69c0 17.32-33.78-15.98-57.03-15.98-6.42 0-12.81.6-19.17 1.81-6.35 1.21-12.05 3.21-17.07 6-5.03 2.78-9.11 6.35-12.26 10.71s-4.72 9.63-4.72 15.81c0 5.81 1.21 10.83 3.63 15.07s5.96 8.12 10.63 11.63q6.99 5.265 17.07 10.26c6.72 3.33 14.5 6.93 23.34 10.81 9.08 4.72 17.65 9.69 25.7 14.89 8.05 5.21 15.14 10.96 21.25 17.26 6.12 6.3 10.96 13.29 14.54 20.98 3.57 7.69 5.35 16.44 5.35 26.24" style="fill:#f2f2f2;stroke-width:0"/></svg>